<svg id="Layer_1" data-name="Layer 1" xmlns="http://www.w3.org/2000/svg" viewBox="0 0 326.96 92.74"><defs><style>.cls-1{fill:#f06022;}.cls-1,.cls-2{fill-rule:evenodd;}.cls-2{fill:#0673ba;}.cls-3{fill:#fe5e00;}</style></defs><path class="cls-1" d="M161.41,63.06V27l3.21-1.31a10.41,10.41,0,0,1,8.31,1c.49.36.23,4.52.22,6.57,4.08.06,6.49-1,7.22-4.29a7,7,0,0,0,0-3.08c-.26-.95-1.06-1.58-1-2.32a10.59,10.59,0,0,1,8.64-6.24,8.52,8.52,0,0,1,2.17,2.27c1.93,3.13,2.21,8.85.52,12.46a13,13,0,0,1-2.64,3.48c-.43.43-1.15.87-1.43,1.43a8.77,8.77,0,0,1,3.21,2.29c5.13,5.12,3.8,14.43-.29,19.54a11.08,11.08,0,0,1-5.38,3.48c-2.94.89-6.74.8-10.48.8Zm11.74-21.31V54.38c4.59.07,7.23-1.18,8.08-4.86a9.15,9.15,0,0,0,.06-3.54,6.16,6.16,0,0,0-1-2.17C179,42.08,176.24,41.72,173.15,41.75Z"/><path class="cls-2" d="M154.29,16.49v6s0,0,0,0c.84.57,1.36,1.83.07,2.6,0,0,0,0,0,0,.88,1.78.89,6.27.92,7,.06.89.1,1.58.15,2.47,0,0,0,0-.05,0-1.38-.72-1.64-.47-3,0,0,0-.06,0-.05,0,.16-2.38,0,0,.17-2.48.11-6.49.91-6.83.86-7h0c-1.07-1-.7-1.89.16-2.61l0,0V16.43a0,0,0,0,0,0,0c-2-.24-6.23-.62-6.87-.67a0,0,0,0,1,0-.06L167.76.29h0L194.18,0s0,0,0,.05c-1.28,1.45-18.05,15-21.5,17.89h0c-1.57-.15-14.65-1.2-18.36-1.48A0,0,0,0,0,154.29,16.49Zm33.6-1.26a0,0,0,0,1,0,0,7.09,7.09,0,0,0-2.37.63,13.72,13.72,0,0,0-8.93,10s0,0-.05,0c-2.68-1.46-6.11-3.46-10.57-2.56a18.17,18.17,0,0,0-3.55,1.09c-.5.22-1.61.73-1.62.71-.84-1.17-1.69-4.15-1.71-7.36a0,0,0,0,1,0,0c3.4.34,13.58,1.49,14.06,1.26h0l0,0,1.75-1.62c2.92-2.37,9.27-7.76,9.67-8.21h0C186,9.72,187.73,13.4,187.89,15.23ZM23.7,38.8H15.51a0,0,0,0,1,0,0c0-2.16-.21-5-1.43-5.91a3.4,3.4,0,0,0-4.42.4c-.82,1.12-.72,2.75-.87,4.46l-.22,6c0,3.41-.29,8.2.75,10.71.72,1.74,3.83,2.53,5.16.74,1.08-1.46,1-4.43.92-6.94a0,0,0,0,1,0,0h8.3s0,0,0,0c.07,6.54-1,11-5,13.34-1.64,1-3.36,1-5.73,1.37-6.17.92-10.81-2.78-12.1-7a21.91,21.91,0,0,1-.63-4.13L0,47.09V38.92H0l.16-2.06h0c.69-4.4,1.29-7.39,4.25-9.49a12.18,12.18,0,0,1,4-1.71,16.32,16.32,0,0,1,6-.11C21,26.8,23.74,31,23.74,38.77,23.74,38.79,23.72,38.8,23.7,38.8ZM201,26h7.5a0,0,0,0,1,0,0v6.5s0,0,0,0H201a0,0,0,0,1,0,0V26S201,26,201,26Zm-170.29.28h7.56a0,0,0,0,1,0,0V37.8s.05.05.06,0c1.29-3.63,8.6-4.39,10.72-1,1.37,2.22,1.32,5.78,1.32,9.37V62.09s0,0,0,0h-7.5a0,0,0,0,1,0,0l-.06-16.94h0c-.34-2.07.42-4.29-1.72-4.52-2.42-.26-2.75,2.9-2.75,5.2V62.09a0,0,0,0,1,0,0H30.71s0,0,0,0V26.26A0,0,0,0,1,30.71,26.23ZM106.5,44.12c-.29-5.35,1.88-8.08,5.76-9.26,4.88-1.48,11.5-.19,13.53,2.86,1.17,1.75,1.09,4.82,1.09,7.71,0,5.23-.7,12.92,1,16.65,0,0,0,0,0,0H122c-.55,0-1.77.17-2.11-.1a0,0,0,0,1,0,0c-.16-.74-.31-1.47-.46-2.21l-.46.46-1.09.85a9.57,9.57,0,0,1-3.72,1.49C107.48,63.83,104,57,106.47,51.32c1.23-2.84,4.46-4.17,7.4-5.31,1.82-.71,4.45-1.32,5.1-3.15.76-2.12-1.58-3.75-3.55-2.74-1.6.81-.93,2.76-1.87,5.18Zm128.31,5.54h-12.2a0,0,0,0,0,0,0c-.07,2.52-.5,6.18,1.14,7.29,2.67,1.79,4.59-1.68,3.86-4.36,0,0,0,0,0,0h7.09a0,0,0,0,1,0,0c.07,6.4-2.38,9.17-7.85,10.08a13.83,13.83,0,0,1-4.76,0,11.69,11.69,0,0,1-3.33-1.15,7,7,0,0,1-3-3.6c-1.52-3.89-1.37-16.25.52-19.43,2.65-4.47,11.32-5.53,15.82-1.94,3,2.38,2.73,7.71,2.7,13.11C234.85,49.65,234.83,49.66,234.81,49.66ZM153.57,62.12h-7.5s0,0,0,0q0-8.45-.05-16.88h0c-.35-2.08.43-4.26-1.67-4.57-2.41-.35-2.81,2.86-2.81,5.09V62.09a0,0,0,0,1,0,0h-7.56a0,0,0,0,1,0,0V35.18a0,0,0,0,1,0,0H141s0,0,0,0c0,1,0,2,0,2.94V38c1.05-.9,1.69-2.11,3-2.74,2.89-1.34,6.8-.59,8.14,1.6a12.8,12.8,0,0,1,1.27,4.8h0v2.8q0,8.82,0,17.63A0,0,0,0,1,153.57,62.12Zm107.5,0h-7.5a0,0,0,0,1,0,0V46c0-2.23.27-5.09-1.72-5.38-2.4-.34-2.81,2.88-2.81,5.09V62.09a0,0,0,0,1,0,0h-7.56s0,0,0,0V35.18s0,0,0,0h7.1a0,0,0,0,1,0,0v2.94l.12-.06c1.55-3.75,8.86-4.93,11.23-1,1.3,2.13,1.21,5.63,1.21,9v16S261.09,62.12,261.07,62.12Zm64.74,0H318.3a0,0,0,0,1,0,0V46c0-2.24.3-5.11-1.78-5.32s-2.4,2.27-2.69,4.12h0l-.06,17.34a0,0,0,0,1,0,0h-7.5s0,0,0,0V35.18s0,0,0,0h7a0,0,0,0,1,0,0v3a0,0,0,0,0,.06,0c1.44-3.66,8.82-5.26,11.24-1.28,1.34,2.2,1.26,5.7,1.26,9.26V62.09A0,0,0,0,1,325.81,62.12ZM57,35.15h7.55s0,0,0,0v16c0,2.27-.31,5.09,1.66,5.43,2.27.39,2.53-2.28,2.81-4.06h0l.06-17.34a0,0,0,0,1,0,0h7.5s0,0,0,0V62.09s0,0,0,0h-7.1a0,0,0,0,1,0,0l-.06-3v.12c-1,1-1.7,2.13-3.1,2.8-2.76,1.32-6.59.5-8-1.43C56.93,58.48,57,55,57,51.43V35.18S57,35.15,57,35.15Zm37.43,0H102s0,0,0,0Q99,49,95.89,62.77h-8.2l-6-27.57s0,0,0,0h7.55s0,0,0,0Q90.56,44.06,91.85,53a0,0,0,1,0,.06,0l2.52-17.77A0,0,0,0,1,94.46,35.15Zm106.54,0h7.5a0,0,0,0,1,0,0V62.09a0,0,0,0,1,0,0H201s0,0,0,0V35.18S201,35.15,201,35.15Zm92.7,0h7.57s0,0,0,0q-3,13.79-6.11,27.59l-8.25,0q-3-13.78-6-27.57s0,0,0,0l7.61.05s0,0,0,0q1.26,8.79,2.54,17.57a0,0,0,1,0,.06,0l2.49-17.62A0,0,0,0,1,293.7,35.15Zm-70.92,9.77h5s0,0,0,0c.06-2.47.1-5.9-2.87-5.34-2.23.42-2.24,2.66-2.18,5.34A0,0,0,0,0,222.78,44.92Zm-104,4.3h0c-2,1.1-4.17,1.25-5.08,3.47a3.47,3.47,0,0,0,.92,4c2.73,1.66,4.27-1.41,4.35-3.83C118.94,52.18,119,49.51,118.76,49.22Zm157.43,4.71v8.16s0,0,0,0h-8.24s0,0,0,0V53.93a0,0,0,0,1,0,0h8.24A0,0,0,0,1,276.19,53.93Z"/><path class="cls-3" d="M9.38,82A5.91,5.91,0,0,1,9,84.54a1.39,1.39,0,0,1-1.33.69,1.38,1.38,0,0,1-1.39-1,19.57,19.57,0,0,1-.38-5.13v-.34A17.24,17.24,0,0,1,6.28,74a1.37,1.37,0,0,1,1.39-.91A1.41,1.41,0,0,1,9,73.85a6.31,6.31,0,0,1,.42,2.59h4.1v-.18a7.16,7.16,0,0,0-1.48-4.93A5.71,5.71,0,0,0,7.6,69.7a6.85,6.85,0,0,0-3,.59,4.81,4.81,0,0,0-2,1.76,6.11,6.11,0,0,0-.77,2.35,33.35,33.35,0,0,0-.24,4.75,33.41,33.41,0,0,0,.24,4.76,6.11,6.11,0,0,0,.77,2.35,4.82,4.82,0,0,0,2,1.77,7.06,7.06,0,0,0,3,.58A5.7,5.7,0,0,0,12.11,87a7.14,7.14,0,0,0,1.44-4.9v-.56c0-.13,0-.25,0-.36H9.38Z"/><path class="cls-3" d="M26.76,88.18V79.71A3.41,3.41,0,0,1,27.12,78a1.11,1.11,0,0,1,1-.62.78.78,0,0,1,.75.4,5.72,5.72,0,0,1,.21,2v8.38h3.76V78.72a5.9,5.9,0,0,0-.73-3.32,2.59,2.59,0,0,0-2.29-1.05,3.54,3.54,0,0,0-1.81.43,3.19,3.19,0,0,0-1.24,1.28V70.13H23V88.18Z"/><path class="cls-3" d="M48.22,83.16a3.54,3.54,0,0,1-.38,1.89,1.35,1.35,0,0,1-1.21.56,1.13,1.13,0,0,1-.89-.38,1.52,1.52,0,0,1-.34-1,2,2,0,0,1,.68-1.52,5.26,5.26,0,0,1,2.14-1Zm4.44,5a4.17,4.17,0,0,1-.37-1.37,18.81,18.81,0,0,1-.11-2.43V79.15a7.88,7.88,0,0,0-.33-2.77,2.92,2.92,0,0,0-1.11-1.3,4.57,4.57,0,0,0-1.55-.63,9.38,9.38,0,0,0-2.09-.22,5.8,5.8,0,0,0-3.88,1.12A4.32,4.32,0,0,0,42,78.77h3.79v-.1a2,2,0,0,1,.34-1.28,1.21,1.21,0,0,1,1-.41,1.17,1.17,0,0,1,.88.31,1.24,1.24,0,0,1,.31.9c0,.65-.71,1.23-2.13,1.75L45,80.37A6.16,6.16,0,0,0,42.4,82.1a3.9,3.9,0,0,0-.79,2.53,4,4,0,0,0,.93,2.79,3.25,3.25,0,0,0,2.52,1,4.53,4.53,0,0,0,1.85-.38,4.93,4.93,0,0,0,1.56-1.13l.23,1.24ZM44.52,72.55a3.82,3.82,0,0,0,2.62.82A3.25,3.25,0,0,0,50.83,70H49.27a1.5,1.5,0,0,1-.63,1.08,3.39,3.39,0,0,1-3,0A1.57,1.57,0,0,1,45,70H43.45A3.74,3.74,0,0,0,44.52,72.55Zm1.53-2.32h1.69l4.1-3.34H48.38Z"/><path class="cls-3" d="M65.69,84.69a7,7,0,0,1-.27-2.37,17.13,17.13,0,0,1,.28-4.14,1.06,1.06,0,0,1,1-.78.94.94,0,0,1,.93.68,7.81,7.81,0,0,1,.27,2.52,16,16,0,0,1-.28,3.9,1,1,0,0,1-1,.84A1,1,0,0,1,65.69,84.69Zm-.2,8V87a3.72,3.72,0,0,0,1.18,1.19,2.9,2.9,0,0,0,1.51.39,2.85,2.85,0,0,0,2.76-1.44q.77-1.44.77-6.07a26.21,26.21,0,0,0-.2-4,4,4,0,0,0-.71-1.69,3,3,0,0,0-1.09-.8,3.84,3.84,0,0,0-1.46-.28,3.34,3.34,0,0,0-1.74.47,3.77,3.77,0,0,0-1.3,1.38V74.62H61.73V92.74Z"/><path class="cls-3" d="M100.09,83.17c0,.14,0,.25,0,.31a4.14,4.14,0,0,1-.27,1.73.93.93,0,0,1-.88.54A1,1,0,0,1,98,85a15,15,0,0,1-.25-3.58A14.68,14.68,0,0,1,98,77.78a1,1,0,0,1,1-.69.9.9,0,0,1,.88.52,4,4,0,0,1,.27,1.73v.39h3.65v-.24a5.71,5.71,0,0,0-1.17-4A4.74,4.74,0,0,0,99,74.26c-1.84,0-3.14.52-3.9,1.58s-1.13,2.91-1.13,5.56.37,4.51,1.13,5.57,2,1.57,3.9,1.57a4.81,4.81,0,0,0,3.67-1.28,5.48,5.48,0,0,0,1.21-3.89c0-.05,0-.14,0-.25s0-.2,0-.27h-3.73C100.08,82.92,100.08,83,100.09,83.17Z"/><path class="cls-3" d="M119.17,83.16a3.54,3.54,0,0,1-.38,1.89,1.35,1.35,0,0,1-1.2.56,1.14,1.14,0,0,1-.9-.38,1.56,1.56,0,0,1-.33-1,2,2,0,0,1,.67-1.52,5.26,5.26,0,0,1,2.14-1Zm4.44,5a4.72,4.72,0,0,1-.37-1.37,20.83,20.83,0,0,1-.11-2.43V79.15a8.2,8.2,0,0,0-.32-2.77,3,3,0,0,0-1.12-1.3,4.6,4.6,0,0,0-1.54-.63,9.44,9.44,0,0,0-2.09-.22,5.78,5.78,0,0,0-3.88,1.12,4.29,4.29,0,0,0-1.28,3.42h3.8v-.1a2.06,2.06,0,0,1,.33-1.28,1.22,1.22,0,0,1,1-.41,1.14,1.14,0,0,1,.87.31,1.2,1.2,0,0,1,.31.9c0,.65-.71,1.23-2.12,1.75l-1.17.43a6.2,6.2,0,0,0-2.6,1.73,3.9,3.9,0,0,0-.79,2.53,4,4,0,0,0,.93,2.79,3.26,3.26,0,0,0,2.53,1,4.49,4.49,0,0,0,1.84-.38,5.09,5.09,0,0,0,1.57-1.13l.22,1.24Zm-5.43-15,4.11-3.34h-3.46l-2.33,3.34Z"/><path class="cls-3" d="M136.39,88.18V79.71a3.41,3.41,0,0,1,.36-1.72,1.11,1.11,0,0,1,1-.62.78.78,0,0,1,.75.4,5.72,5.72,0,0,1,.21,2v8.38h3.76V78.72a6,6,0,0,0-.72-3.32,2.61,2.61,0,0,0-2.3-1.05,3.62,3.62,0,0,0-1.86.46,4.09,4.09,0,0,0-1.42,1.42V74.62h-3.55V88.18Z"/><path class="cls-3" d="M155.65,88.18V79.71A3.53,3.53,0,0,1,156,78a1.11,1.11,0,0,1,1-.62.8.8,0,0,1,.75.4,5.72,5.72,0,0,1,.21,2v8.38h3.76V78.72A5.9,5.9,0,0,0,161,75.4a2.59,2.59,0,0,0-2.3-1.05,3.59,3.59,0,0,0-1.81.43,3.23,3.23,0,0,0-1.23,1.28V70.13h-3.78V88.18Z"/><path class="cls-3" d="M190.52,85.49l-.13,0-.42,0a1.11,1.11,0,0,1-1-.41,5.41,5.41,0,0,1-.25-2.18V77.42h1.8v-2.8h-1.8V70.87h-3.81v3.75h-1.47v2.8h1.47v6.22a16.55,16.55,0,0,0,.1,2.17,3.52,3.52,0,0,0,.34,1.17,2.46,2.46,0,0,0,1.17,1,4.58,4.58,0,0,0,1.91.36,6.05,6.05,0,0,0,.88-.07c.35,0,.75-.1,1.21-.19Z"/><path class="cls-3" d="M210.36,75.64a3,3,0,0,0,.56-2V71.73H208.5v2.41h1.31a1.31,1.31,0,0,1-.33,1,.91.91,0,0,1-.39.27v-.74h-3.76v8.47A3.35,3.35,0,0,1,205,84.8a1.08,1.08,0,0,1-1,.61.79.79,0,0,1-.75-.39,5.65,5.65,0,0,1-.21-2V74.62h-3.79v9.46a5.88,5.88,0,0,0,.73,3.31,2.63,2.63,0,0,0,2.31,1.06,3.71,3.71,0,0,0,1.86-.45,4.28,4.28,0,0,0,1.41-1.43v1.61h3.55V76.28a2.16,2.16,0,0,0,1.27-.64Z"/><path class="cls-3" d="M222.41,77.82a1,1,0,0,1,1.89,0,14.64,14.64,0,0,1,.25,3.61A14.58,14.58,0,0,1,224.3,85a1,1,0,0,1-1.89,0,14.61,14.61,0,0,1-.25-3.58A14.67,14.67,0,0,1,222.41,77.82Zm-3,9.15c.75,1,2.05,1.57,3.9,1.57A4.48,4.48,0,0,0,227.26,87q1.13-1.58,1.13-5.55c0-2.65-.38-4.51-1.13-5.56s-2.06-1.58-3.91-1.58a4.47,4.47,0,0,0-3.9,1.59c-.76,1.06-1.13,2.91-1.13,5.55S218.69,85.91,219.45,87Zm8.25-12.83a1.31,1.31,0,0,1-.33,1,1.46,1.46,0,0,1-1,.41v.85a2.57,2.57,0,0,0,1.85-.71,2.9,2.9,0,0,0,.57-2V71.73h-2.43v2.41Z"/><path class="cls-3" d="M241.38,88.18V79.71a3.53,3.53,0,0,1,.35-1.72,1.11,1.11,0,0,1,1-.62.78.78,0,0,1,.75.4,5.4,5.4,0,0,1,.22,2v8.38h3.76V78.72a5.9,5.9,0,0,0-.73-3.32,2.59,2.59,0,0,0-2.3-1.05,3.62,3.62,0,0,0-1.86.46,4.18,4.18,0,0,0-1.42,1.42V74.62h-3.55V88.18Z"/><path class="cls-3" d="M260.67,78a1,1,0,0,1,.9-.51.93.93,0,0,1,.92.57,9,9,0,0,1,.25,2.78v.55a8.9,8.9,0,0,1-.26,2.7,1,1,0,0,1-.94.64.91.91,0,0,1-.9-.72,13.2,13.2,0,0,1-.26-3.38v-1A3.5,3.5,0,0,1,260.67,78Zm2.41-3.35v1.51a5.49,5.49,0,0,0-1.52-1.38,3.31,3.31,0,0,0-1.68-.45,2.91,2.91,0,0,0-1.95.74,3.17,3.17,0,0,0-1.07,1.88,17,17,0,0,0-.21,1.92c0,.79-.07,1.69-.07,2.69a25.38,25.38,0,0,0,.1,2.56,5.52,5.52,0,0,0,.33,1.52,3.36,3.36,0,0,0,1.18,1.53,2.94,2.94,0,0,0,1.75.53,3.22,3.22,0,0,0,1.38-.31,5.57,5.57,0,0,0,1.42-1V88a3.87,3.87,0,0,1-.28,1.81,1.09,1.09,0,0,1-1,.46,1,1,0,0,1-.86-.35,1.85,1.85,0,0,1-.28-1.11h-3.73a3.64,3.64,0,0,0,1.16,3,5.39,5.39,0,0,0,3.53,1,7.39,7.39,0,0,0,2.65-.43,3.67,3.67,0,0,0,2.42-2.79,14.12,14.12,0,0,0,.2-2.76V74.62Z"/><path class="cls-3" d="M293.26,70.13H289.5V88.18h3.76Z"/><path class="cls-3" d="M308.87,83.16a3.56,3.56,0,0,1-.37,1.89,1.35,1.35,0,0,1-1.21.56,1.17,1.17,0,0,1-.9-.38,1.56,1.56,0,0,1-.33-1,2,2,0,0,1,.67-1.52,5.33,5.33,0,0,1,2.14-1Zm4.44,5a4.45,4.45,0,0,1-.36-1.37,18.45,18.45,0,0,1-.12-2.43V79.15a7.94,7.94,0,0,0-.32-2.77,2.94,2.94,0,0,0-1.12-1.3,4.44,4.44,0,0,0-1.54-.63,9.38,9.38,0,0,0-2.09-.22,5.8,5.8,0,0,0-3.88,1.12,4.33,4.33,0,0,0-1.28,3.42h3.8v-.1a2.06,2.06,0,0,1,.33-1.28,1.25,1.25,0,0,1,1-.41,1.17,1.17,0,0,1,.88.31,1.24,1.24,0,0,1,.3.9c0,.65-.7,1.23-2.12,1.75l-1.17.43a6.26,6.26,0,0,0-2.6,1.73,4.53,4.53,0,0,0,.15,5.32,3.25,3.25,0,0,0,2.52,1,4.57,4.57,0,0,0,1.85-.38,5.17,5.17,0,0,0,1.56-1.13l.22,1.24Z"/><path class="cls-3" d="M326.05,73.27V70h-3.76v3.28Zm0,14.91V74.62h-3.76V88.18Z"/></svg>