<svg width="40" height="40" viewBox="0 0 40 40" fill="none" xmlns="http://www.w3.org/2000/svg">
<g clip-path="url(#clip0_4227_22439)">
<path d="M40 20C40 31.0457 31.0457 40 20 40C8.9543 40 0 31.0457 0 20C0 8.9543 8.9543 0 20 0C31.0457 0 40 8.9543 40 20Z" fill="#010506"/>
<mask id="mask0_4227_22439" style="mask-type:luminance" maskUnits="userSpaceOnUse" x="12" y="11" width="16" height="19">
<path d="M28 11.5H12V29.5H28V11.5Z" fill="white"/>
</mask>
<g mask="url(#mask0_4227_22439)">
<path d="M28 18.8796C26.4277 18.8834 24.8939 18.4007 23.6154 17.4998V23.7829C23.6149 24.9466 23.2536 26.0824 22.5797 27.0385C21.9057 27.9946 20.9514 28.7254 19.8441 29.1332C18.7369 29.5409 17.5296 29.6062 16.3837 29.3203C15.2377 29.0344 14.2078 28.4109 13.4315 27.5332C12.6553 26.6555 12.1697 25.5655 12.0398 24.4088C11.9099 23.2522 12.1418 22.084 12.7045 21.0606C13.2672 20.0372 14.1339 19.2073 15.1887 18.6818C16.2435 18.1564 17.4362 17.9605 18.6071 18.1203V21.2805C18.0713 21.1146 17.4959 21.1196 16.9631 21.2947C16.4303 21.4699 15.9674 21.8064 15.6405 22.256C15.3135 22.7056 15.1392 23.2455 15.1425 23.7984C15.1459 24.3513 15.3266 24.8891 15.6589 25.3349C15.9912 25.7807 16.4581 26.1118 16.993 26.2808C17.5278 26.4498 18.1032 26.4481 18.637 26.276C19.1709 26.1039 19.6358 25.7701 19.9654 25.3224C20.295 24.8746 20.4725 24.3358 20.4725 23.7829V11.5H23.6154C23.6132 11.7613 23.6354 12.0222 23.6818 12.2794C23.791 12.8537 24.0181 13.4 24.3491 13.8849C24.6802 14.3698 25.1082 14.7832 25.6071 15.0996C26.3169 15.5616 27.1491 15.8079 28 15.8077V18.8796Z" fill="white"/>
</g>
</g>
<defs>
<clipPath id="clip0_4227_22439">
<rect width="40" height="40" fill="white"/>
</clipPath>
</defs>
</svg>
